# xmcd
#
# Track frame offsets: 
#        150
#        12006
#        25223
#        37870
#        49276
#        62098
#        75021
#        85692
#        98267
#        110316
#
# Disc length: 1635 seconds
#
# Revision: 1
# Processed by: cddbd v1.5.2PL0 Copyright (c) Steve Scherf et al.
# Submitted via: ExactAudioCopy v1.1
#
DISCID=5b06610a
DTITLE=Various Artist - Rarities From The Vaults - CD2 - Also Playing
DTITLE=
DYEAR=2011
DGENRE=Blues
TTITLE0=The Chuck Wagon Gang - The Enginee's Child (mono)
TTITLE1=Andres Berlanga y Francisco Montalvo - Que Piensas Tu Que Mi A
TTITLE1=more (mono)
TTITLE2=Andres Berlanga y Francisco Montalvo - Ay! Que Bonitos Ojitos 
TTITLE2=(mono)
TTITLE3=Hermanas Barraza y Daniel Palomo - Que Sera (mono)
TTITLE4=Hermanas Barraza y Daniel Palomo - Muchos Besos (mono)
TTITLE5=The Crystal Springs Ramblers - Tell Me Pretty Mama (mono)
TTITLE6=The Crystal Springs Ramblers - Down In Arkansas (mono)
TTITLE7=Zeke Williams and His Rambling Cowboys - Breeze (mono)
TTITLE8=The Light Crust Doughboys - The Eyes Of Texas (mono)
TTITLE9=The Light Crust Doughboys - Stay Out Of The South (mono)
EXTD=
EXTT0=
EXTT1=
EXTT2=
EXTT3=
EXTT4=
EXTT5=
EXTT6=
EXTT7=
EXTT8=
EXTT9=
PLAYORDER=
